<svg width="128" height="128" viewBox="0 0 128 128" xmlns="http://www.w3.org/2000/svg" role="img" aria-label="PetFlow">
  <defs>
    <linearGradient id="petflowGradient" x1="0%" y1="0%" x2="100%" y2="100%">
      <stop offset="0%" stop-color="#4f46e5"/>
      <stop offset="100%" stop-color="#22c55e"/>
    </linearGradient>
  </defs>
  <rect x="10" y="10" width="108" height="108" rx="26" fill="#f8fafc"/>
  <path d="M62.5 30c5.5 0 10 4.8 10 10.8s-4.5 11-10 11-10-5-10-11S57 30 62.5 30Zm25 12c4.7 0 8.5 4.2 8.5 9.4s-3.8 9.6-8.5 9.6-8.5-4.3-8.5-9.6 3.8-9.4 8.5-9.4Zm-49.5 0c4.7 0 8.5 4.2 8.5 9.4s-3.8 9.6-8.5 9.6S29 56.7 29 51.4 33.3 42 38 42Zm23 18.5c12 0 22 8.9 22 20.8 0 9.4-7.8 17.2-17.5 17.2H55c-9.7 0-17.5-7.8-17.5-17.2 0-11.9 10-20.8 22-20.8Z" fill="url(#petflowGradient)"/>
  <circle cx="47" cy="85" r="6.5" fill="#0f172a" opacity="0.12"/>
  <circle cx="81" cy="85" r="6.5" fill="#0f172a" opacity="0.12"/>
</svg>
